<svg xmlns="http://www.w3.org/2000/svg" width="500" viewBox="0 0 375 375" height="500" version="1.0">
  <defs>
    <clipPath id="a">
      <path d="M37 138h300v200H37Zm0 0"/>
    </clipPath>
    <clipPath id="b">
      <path d="M192 39h65v73h-65Zm0 0"/>
    </clipPath>
  </defs>
  <path fill="#fae29c" d="m271 225 32 111H92c-9 0-16-6-18-14L40 204c-1-7 4-14 11-14h32c5 0 10 3 11 8l3 12h154c10 0 18 6 20 15Zm0 0"/>
  <path fill="#349370" d="m100 91 20 54-42 15-20-53Zm0 0"/>
  <path fill="#f9b132" d="m194 95 18-54 42 13-17 55Zm0 0"/>
  <path fill="#1498b7" d="m142 62-10 14-10-7 9-14ZM271 124l6 15-12 5-6-16Zm0 0"/>
  <path fill="#b29576" d="M320 180c9 0 16 8 14 17l-31 139-32-111c-2-9-10-15-20-15H97l4-19c2-7 8-11 14-11h54l4 20 43-8-3-12Zm0 0"/>
  <path fill="#349370" d="m310 62-10 14-10-7 9-14Zm0 0"/>
  <path fill="#ceabd8" d="m213 180 3 12-43 8-4-20-6-30 42-9Zm0 0"/>
  <path fill="#6fceae" d="M166 323h-15c-9 0-17-5-19-13l-12-36h72l4 13-12-1v16l17 1c3 10-4 20-15 20Zm0 0"/>
  <path fill="#e15c63" d="m180 248 3 13h-13l-3-10c-2-9-10-15-19-15a13 13 0 0 0-13 17l6 21h-13l-6-21c-4-15 7-29 22-29h5c12 0 23 7 28 17l-2 6Zm0 0"/>
  <path fill="#f9b132" d="M63 172h17v18H63Zm0 0"/>
  <path fill="#ceabd8" d="m58 47 5 16-12 3-6-15Zm0 0"/>
  <path fill="#e15c63" d="M168 296a8 8 0 0 1-2 6 8 8 0 0 1-6 2 8 8 0 0 1-4-1 8 8 0 0 1-2-2 8 8 0 0 1-2-6 8 8 0 0 1 4-5 8 8 0 0 1 12 6Zm0 0"/>
  <path fill="#edd598" d="M271 225c-2-9-10-15-20-15 0 0 26 46 1 88-21 34-160 38-160 38h211Zm0 0"/>
  <g clip-path="url(#a)">
    <path fill="#3a322b" d="M333 184c-3-4-8-7-13-7H215l-8-37a2 2 0 0 0-3-1l-42 8c-1 1-2 2-1 3l5 27h-51c-7 0-14 6-16 13l-2 10-1-3c-1-5-7-9-13-9h-1v-16c0-2-1-3-2-3H63c-2 0-3 1-3 3v16h-9c-4 0-8 2-11 5-2 3-3 8-2 12l33 117c3 9 11 16 21 16h212v-1h1v-1l32-138c1-5 0-10-4-14Zm-130-40 10 46-38 8-9-46ZM65 174h12v14H65Zm27 159c-7 0-14-5-16-12L43 203c-1-2 0-5 1-7 2-2 4-4 7-4h32c4 0 8 3 9 7l3 11v1l1 1h155c9 0 16 6 18 14l31 107Zm240-136-30 129-28-102c-3-10-12-17-23-17H100l4-16c1-5 6-9 11-9h52l4 19a2 2 0 0 0 3 2l42-9 2-3-2-9h104c4 0 7 2 10 5 2 3 3 6 2 10Zm0 0"/>
  </g>
  <path fill="#3a322b" d="M203 302v-1h-1l-1-1h-14v-11h10v-1h1v-2l-4-13-2-2h-49l-5-19a11 11 0 0 1 10-14c8 0 15 6 17 13l3 11 2 2h13a2 2 0 0 0 3-3l-4-13-2-2-2-1 1-3v-2c-6-11-17-19-30-19h-5a25 25 0 0 0-25 32l5 18h-4a2 2 0 0 0-2 3l12 36c3 9 11 15 21 15h35c6 0 11-2 15-7 3-5 4-10 2-16Zm-79-50a21 21 0 0 1 20-26h5c10 0 20 6 26 15l-3 5a2 2 0 0 0 2 3l4 1 2 9h-8l-2-9c-3-10-12-16-22-16-5 0-9 2-12 6s-4 9-3 13l5 18h-9Zm73 63c-2 4-6 6-11 6h-18l-3-15a10 10 0 1 0-5 1l3 14h-12c-8 0-15-5-17-12l-11-33h67l3 8h-8a2 2 0 0 0-3 2v14l-6 1-2 1-3 7a2 2 0 0 0 2 4l2-2 3-6 6-1 15 1c1 4 0 7-2 10Zm-37-13a6 6 0 1 1 0-11 6 6 0 0 1 0 11ZM56 106v2l20 53a2 2 0 0 0 3 1l42-15 1-3-20-54-3-1-42 16-1 1Zm42-12 19 49-37 14-19-49Zm0 0"/>
  <g clip-path="url(#b)">
    <path fill="#3a322b" d="m194 97 42 14h1a2 2 0 0 0 2-2l17-54c1-1 0-2-1-3l-43-13a2 2 0 0 0-3 1l-17 54c0 2 0 3 2 3Zm19-53 38 12-16 50-38-12Zm0 0"/>
  </g>
  <path fill="#3a322b" d="M263 145a2 2 0 0 0 3 1l12-4c1-1 2-2 1-3l-6-16c0-1-2-2-3-1l-12 4-1 1v2Zm7-18 4 11-8 3-4-11ZM299 78a2 2 0 0 0 3-1l10-13-1-4-10-7h-2l-2 1-9 13a2 2 0 0 0 0 4Zm1-20 6 5-7 10-6-5ZM131 78a2 2 0 0 0 3-1l10-13-1-4-10-7a2 2 0 0 0-4 1l-9 13v4Zm1-20 6 5-6 10-7-5ZM48 67a2 2 0 0 0 3 2l12-4c2-1 2-2 2-3l-5-16-1-2h-2l-12 4c-2 1-2 2-2 3Zm8-17 4 11-8 2-4-11Zm0 0"/>
</svg>
