<?xml version="1.0" encoding="UTF-8" standalone="no"?>
<!DOCTYPE svg PUBLIC "-//W3C//DTD SVG 1.1//EN" "http://www.w3.org/Graphics/SVG/1.1/DTD/svg11.dtd">
<svg width="100%" height="100%" viewBox="0 0 1867 378" version="1.1" xmlns="http://www.w3.org/2000/svg" xmlns:xlink="http://www.w3.org/1999/xlink" xml:space="preserve" xmlns:serif="http://www.serif.com/" style="fill-rule:evenodd;clip-rule:evenodd;stroke-linejoin:round;stroke-miterlimit:2;">
    <g transform="matrix(1,0,0,1,-26.773,-771.041)">
        <g>
            <g transform="matrix(0.160738,-0.577391,0.577391,0.160738,1063.65,1066.66)">
                <g>
                    <g>
                        <g>
                            <g>
                                <path d="M493.559,18.481C485.135,10.058 470.001,0.018 445.739,0.018C414.745,0.018 373.028,17.47 321.747,51.888C310.394,59.508 298.607,67.945 286.677,76.982C276.641,75.255 266.39,74.335 256,74.335C155.831,74.336 74.336,155.83 74.336,256C74.336,266.386 75.254,276.634 76.981,286.665C61.413,307.195 47.864,326.962 36.73,345.445C20.298,372.722 9.26,396.938 3.925,417.422C-6.594,457.804 6.012,481.094 18.442,493.519C26.866,501.942 42.001,511.982 66.264,511.982C97.259,511.982 138.976,494.53 190.257,460.112C201.713,452.423 213.417,444.046 225.287,435.059C235.419,436.785 245.734,437.666 256.002,437.666C356.171,437.666 437.666,356.172 437.666,256.002C437.666,245.74 436.787,235.434 435.063,225.31C450.49,204.963 464.04,185.204 475.272,166.558C491.703,139.285 502.741,115.068 508.077,94.581C518.594,54.195 505.987,30.907 493.559,18.481ZM256,421.148C251.918,421.148 247.826,420.991 243.745,420.689C274.44,396.162 305.946,367.853 336.909,336.896C367.8,306.011 396.182,274.404 420.691,243.759C420.993,247.835 421.149,251.922 421.149,256C421.149,347.063 347.063,421.148 256,421.148ZM492.094,90.415C487.157,109.367 476.737,132.117 461.124,158.032C449.74,176.929 435.906,197.018 420.087,217.73C419.835,218.017 419.601,218.32 419.392,218.638C392.834,253.315 360.736,289.72 325.233,325.216C276.644,373.796 226.787,415.699 181.051,446.396C132.54,478.956 93.92,495.464 66.262,495.464C47.653,495.464 36.335,488.054 30.118,481.838C20.742,472.463 11.359,454.399 19.907,421.583C24.843,402.634 35.263,379.884 50.877,353.964C59.703,339.315 70.112,323.803 81.888,307.712C96.692,357.354 132.371,399.405 180.939,421.471C182.047,421.975 183.207,422.213 184.35,422.213C187.489,422.213 190.49,420.413 191.873,417.369C193.759,413.217 191.923,408.322 187.771,406.436C128.897,379.687 90.854,320.637 90.854,255.998C90.854,164.935 164.94,90.849 256.003,90.849C320.647,90.849 379.698,128.894 406.444,187.774C408.33,191.926 413.225,193.763 417.378,191.877C421.53,189.991 423.366,185.096 421.481,180.943C399.419,132.377 357.375,96.698 307.739,81.89C315.62,76.131 323.389,70.679 330.956,65.6C379.467,33.04 418.087,16.532 445.744,16.532C464.353,16.532 475.671,23.942 481.889,30.158C491.259,39.535 500.642,57.597 492.094,90.415Z" style="fill:white;fill-rule:nonzero;"/>
                            </g>
                            <g transform="matrix(0.118036,0.409845,-0.409845,0.118036,329.461,123.109)">
                                <g>
                                    <g>
                                        <g>
                                            <path d="M382.616,133.644L320.708,133.644C318.56,133.644 316.552,133.208 316.552,135.344L316.552,197.248C316.552,199.388 318.56,200.528 320.708,200.528L336.224,200.528L336.224,250.292L265.404,319.728L265.404,113.972L293.32,113.972C295.484,113.972 297.212,111.228 297.212,109.092C297.212,108.312 296.984,107.076 296.588,106.464L254.616,2.544C254.024,1.088 252.6,0 251.032,0C249.452,0 248.032,0.892 247.448,2.352L205.208,106.656C204.724,107.852 204.864,110.208 205.584,111.272C206.304,112.34 207.504,113.976 208.792,113.976L233.928,113.976L233.928,393.284L167.044,323.612L167.044,251.664C178.848,245.812 185.932,233.84 185.932,220.476C185.932,201.268 170.076,185.644 150.872,185.644C131.66,185.644 116.128,201.264 116.128,220.476C116.128,233.84 123.768,245.812 135.572,251.664L135.572,330.02C135.572,331.012 135.456,332.028 135.656,333.076C135.74,333.464 135.756,333.832 135.876,334.2L135.96,334.636C136.076,335.068 136.18,335.504 136.352,335.936C136.548,336.388 136.76,336.816 137,337.244L137.22,337.636C137.384,337.968 137.548,338.3 137.764,338.612C138.348,339.492 139.004,340.288 139.696,340.976L225.568,426.844C215,434.852 208.604,447.476 208.604,460.836C208.604,484.356 227.736,503.488 251.26,503.488C274.776,503.488 293.236,484.356 293.236,460.836C293.236,443.06 281.136,427.424 265.4,421.084L265.4,363.508L361.9,267.672C362.604,266.972 363.612,266.168 364.188,265.292C364.408,264.984 364.744,264.652 364.916,264.316L365.212,263.92C365.456,263.488 365.736,263.048 365.916,262.608C366.088,262.188 366.236,261.752 366.36,261.316L366.492,260.884C366.616,260.512 367.024,260.144 367.108,259.72C367.304,258.712 367.688,257.692 367.688,256.704L367.688,200.528L382.608,200.528C384.748,200.528 387.36,199.388 387.36,197.248L387.36,135.344C387.364,133.208 384.756,133.644 382.616,133.644Z" style="fill:white;fill-rule:nonzero;"/>
                                        </g>
                                    </g>
                                </g>
                            </g>
                        </g>
                        <g>
                            <g>
                                <path d="M256,30.296C251.44,30.296 247.743,33.993 247.743,38.553L247.743,49.563C247.743,54.123 251.44,57.82 256,57.82C260.56,57.82 264.257,54.123 264.257,49.563L264.257,38.553C264.258,33.993 260.561,30.296 256,30.296Z" style="fill:white;fill-rule:nonzero;"/>
                            </g>
                        </g>
                        <g>
                            <g>
                                <path d="M200.06,57.116L196.658,46.646C195.249,42.309 190.59,39.932 186.254,41.345C181.917,42.754 179.542,47.413 180.953,51.749L184.355,62.218C185.489,65.707 188.726,67.927 192.206,67.927C193.052,67.927 193.911,67.796 194.759,67.521C199.095,66.111 201.47,61.453 200.06,57.116Z" style="fill:white;fill-rule:nonzero;"/>
                            </g>
                        </g>
                        <g>
                            <g>
                                <path d="M141.341,84.135L134.87,75.228C132.189,71.539 127.025,70.722 123.336,73.4C119.647,76.081 118.828,81.245 121.508,84.934L127.979,93.842C129.595,96.066 132.113,97.246 134.666,97.246C136.348,97.246 138.047,96.733 139.513,95.668C143.202,92.988 144.02,87.824 141.341,84.135Z" style="fill:white;fill-rule:nonzero;"/>
                            </g>
                        </g>
                        <g>
                            <g>
                                <path d="M93.843,127.978L84.936,121.507C81.245,118.825 76.082,119.644 73.402,123.335C70.721,127.023 71.54,132.187 75.23,134.868L84.137,141.339C85.602,142.404 87.301,142.917 88.984,142.917C91.537,142.917 94.055,141.737 95.671,139.513C98.351,135.823 97.532,130.659 93.843,127.978Z" style="fill:white;fill-rule:nonzero;"/>
                            </g>
                        </g>
                        <g>
                            <g>
                                <path d="M62.219,184.354L51.749,180.952C47.412,179.542 42.753,181.915 41.345,186.253C39.935,190.591 42.308,195.249 46.646,196.658L57.116,200.06C57.964,200.335 58.824,200.466 59.669,200.466C63.15,200.466 66.387,198.247 67.52,194.757C68.929,190.421 66.556,185.763 62.219,184.354Z" style="fill:white;fill-rule:nonzero;"/>
                            </g>
                        </g>
                        <g>
                            <g>
                                <path d="M49.564,247.742L38.554,247.742C33.994,247.742 30.297,251.439 30.297,255.999C30.297,260.559 33.994,264.256 38.554,264.256L49.564,264.256C54.124,264.256 57.821,260.559 57.821,255.999C57.821,251.439 54.124,247.742 49.564,247.742Z" style="fill:white;fill-rule:nonzero;"/>
                            </g>
                        </g>
                        <g>
                            <g>
                                <path d="M95.67,372.486C92.989,368.798 87.825,367.979 84.136,370.659L75.229,377.13C71.54,379.811 70.721,384.975 73.401,388.664C75.017,390.888 77.535,392.068 80.088,392.068C81.77,392.068 83.469,391.555 84.935,390.49L93.842,384.019C97.532,381.339 98.35,376.175 95.67,372.486Z" style="fill:white;fill-rule:nonzero;"/>
                            </g>
                        </g>
                        <g>
                            <g>
                                <path d="M139.513,416.329C135.822,413.647 130.659,414.466 127.979,418.157L121.508,427.064C118.827,430.753 119.646,435.918 123.336,438.598C124.801,439.663 126.5,440.176 128.183,440.176C130.736,440.176 133.254,438.996 134.87,436.772L141.341,427.865C144.02,424.174 143.202,419.009 139.513,416.329Z" style="fill:white;fill-rule:nonzero;"/>
                            </g>
                        </g>
                        <g>
                            <g>
                                <path d="M256,454.178C251.44,454.178 247.743,457.875 247.743,462.435L247.743,473.445C247.743,478.005 251.44,481.702 256,481.702C260.56,481.702 264.257,478.005 264.257,473.445L264.257,462.435C264.258,457.875 260.561,454.178 256,454.178Z" style="fill:white;fill-rule:nonzero;"/>
                            </g>
                        </g>
                        <g>
                            <g>
                                <path d="M331.047,460.251L327.645,449.779C326.236,445.442 321.577,443.066 317.241,444.478C312.904,445.887 310.529,450.546 311.94,454.882L315.342,465.352C316.476,468.841 319.713,471.061 323.193,471.061C324.039,471.061 324.898,470.93 325.746,470.655C330.083,469.246 332.458,464.588 331.047,460.251Z" style="fill:white;fill-rule:nonzero;"/>
                            </g>
                        </g>
                        <g>
                            <g>
                                <path d="M390.491,427.062L384.02,418.156C381.339,414.467 376.176,413.65 372.486,416.328C368.797,419.009 367.979,424.173 370.658,427.862L377.129,436.769C378.745,438.993 381.263,440.173 383.816,440.173C385.498,440.173 387.197,439.66 388.663,438.595C392.353,435.915 393.171,430.751 390.491,427.062Z" style="fill:white;fill-rule:nonzero;"/>
                            </g>
                        </g>
                        <g>
                            <g>
                                <path d="M436.771,377.13L427.864,370.659C424.174,367.979 419.01,368.796 416.33,372.487C413.649,376.176 414.468,381.34 418.158,384.021L427.065,390.492C428.53,391.557 430.229,392.07 431.912,392.07C434.465,392.07 436.983,390.89 438.599,388.666C441.279,384.974 440.461,379.811 436.771,377.13Z" style="fill:white;fill-rule:nonzero;"/>
                            </g>
                        </g>
                        <g>
                            <g>
                                <path d="M465.355,315.341L454.885,311.939C450.546,310.526 445.889,312.903 444.481,317.24C443.072,321.577 445.445,326.235 449.782,327.644L460.252,331.046C461.1,331.321 461.96,331.452 462.805,331.452C466.285,331.452 469.523,329.233 470.656,325.743C472.066,321.407 469.692,316.749 465.355,315.341Z" style="fill:white;fill-rule:nonzero;"/>
                            </g>
                        </g>
                        <g>
                            <g>
                                <path d="M473.446,247.742L462.436,247.742C457.876,247.742 454.179,251.439 454.179,255.999C454.179,260.559 457.876,264.256 462.436,264.256L473.446,264.256C478.006,264.256 481.703,260.559 481.703,255.999C481.703,251.439 478.007,247.742 473.446,247.742Z" style="fill:white;fill-rule:nonzero;"/>
                            </g>
                        </g>
                        <g>
                            <g>
                                <path d="M438.598,123.333C435.917,119.645 430.755,118.827 427.064,121.506L418.157,127.977C414.468,130.658 413.65,135.822 416.329,139.511C417.945,141.735 420.462,142.915 423.016,142.915C424.698,142.915 426.397,142.402 427.863,141.337L436.77,134.866C440.459,132.186 441.277,127.023 438.598,123.333Z" style="fill:white;fill-rule:nonzero;"/>
                            </g>
                        </g>
                        <g>
                            <g>
                                <path d="M388.664,73.401C384.973,70.719 379.81,71.539 377.13,75.229L370.659,84.136C367.978,87.825 368.797,92.99 372.487,95.67C373.952,96.735 375.651,97.248 377.334,97.248C379.887,97.248 382.405,96.068 384.021,93.844L390.492,84.937C393.172,81.246 392.354,76.082 388.664,73.401Z" style="fill:white;fill-rule:nonzero;"/>
                            </g>
                        </g>
                    </g>
                </g>
            </g>
            <g transform="matrix(1.25593,0,0,1.25593,3.62136,1087.5)">
                <text x="0px" y="0px" style="font-family:'Bungee-Regular', 'Bungee';font-size:288px;fill:white;">USB N</text>
            </g>
            <g transform="matrix(1.25593,0,0,1.25593,795.13,238.823)">
                <g>
                    <g transform="matrix(1,0,0,1,472.279,677.896)">
                        <text x="0px" y="0px" style="font-family:'Bungee-Regular', 'Bungee';font-size:288px;fill:white;">V</text>
                    </g>
                    <g transform="matrix(1,0,0,1,679.639,677.896)">
                        <text x="0px" y="0px" style="font-family:'Bungee-Regular', 'Bungee';font-size:288px;fill:white;">A</text>
                    </g>
                </g>
            </g>
        </g>
    </g>
</svg>
