<?xml version="1.0" encoding="UTF-8" standalone="no"?>
<!DOCTYPE svg PUBLIC "-//W3C//DTD SVG 1.1//EN" "http://www.w3.org/Graphics/SVG/1.1/DTD/svg11.dtd">
<svg width="100%" height="100%" viewBox="0 0 500 500" version="1.1" xmlns="http://www.w3.org/2000/svg" xmlns:xlink="http://www.w3.org/1999/xlink" xml:space="preserve" xmlns:serif="http://www.serif.com/" style="fill-rule:evenodd;clip-rule:evenodd;stroke-linejoin:round;stroke-miterlimit:2;">
    <path d="M361.333,300L404,448L122.667,448C110.667,448 101.333,440 98.667,429.333L53.333,272C52,262.667 58.667,253.333 68,253.333L110.667,253.333C117.333,253.333 124,257.333 125.333,264L129.333,280L334.667,280C348,280 358.667,288 361.333,300Z" style="fill:rgb(250,226,156);fill-rule:nonzero;"/>
    <path d="M133.333,121.333L160,193.333L104,213.333L77.333,142.667L133.333,121.333Z" style="fill:rgb(52,147,112);fill-rule:nonzero;"/>
    <path d="M258.667,126.667L282.667,54.667L338.667,72L316,145.333L258.667,126.667Z" style="fill:rgb(249,177,50);fill-rule:nonzero;"/>
    <path d="M426.667,240C438.667,240 448,250.667 445.333,262.667L404,448L361.333,300C358.667,288 348,280 334.667,280L129.333,280L134.667,254.667C137.333,245.333 145.333,240 153.333,240L225.333,240L230.667,266.667L288,256L284,240L426.667,240Z" style="fill:rgb(178,149,118);fill-rule:nonzero;"/>
    <path d="M284,240L288,256L230.667,266.667L217.333,200L273.333,188L284,240Z" style="fill:rgb(206,171,216);fill-rule:nonzero;"/>
    <path d="M248,430.667L201.333,430.667C189.333,430.667 178.667,424 176,413.333L160,365.333L256,365.333L261.333,382.667L245.333,381.333L245.333,402.667L268,404C272,417.333 262.667,430.667 248,430.667Z" style="fill:rgb(111,206,174);fill-rule:nonzero;"/>
    <path d="M240,330.667L244,348L226.667,348L222.667,334.667C220,322.667 209.333,314.667 197.333,314.667C197.051,314.653 196.768,314.646 196.486,314.646C186.977,314.646 179.152,322.47 179.152,331.979C179.152,333.797 179.438,335.604 180,337.333L188,365.333L170.667,365.333L162.667,337.333C157.333,317.333 172,298.667 192,298.667L198.667,298.667C214.667,298.667 229.333,308 236,321.333L233.333,329.333L240,330.667Z" style="fill:rgb(225,92,99);fill-rule:nonzero;"/>
    <path d="M224,394.667C224.248,397.585 223.282,400.48 221.333,402.667C219.147,404.616 216.252,405.581 213.333,405.333C211.47,405.363 209.631,404.903 208,404C206.96,403.277 206.057,402.374 205.333,401.333C203.384,399.147 202.419,396.252 202.667,393.333C203.438,390.467 205.373,388.049 208,386.667C209.637,385.705 211.502,385.198 213.401,385.198C218.802,385.198 223.393,389.3 224,394.667Z" style="fill:rgb(225,92,99);fill-rule:nonzero;"/>
    <path d="M361.333,300C358.667,288 348,280 334.667,280C334.667,280 369.333,341.333 336,397.333C308,442.667 122.667,448 122.667,448L404,448L361.333,300Z" style="fill:rgb(237,213,152);fill-rule:nonzero;"/>
</svg>
