<svg xmlns="http://www.w3.org/2000/svg" width="500" viewBox="0 0 375 375" height="500" version="1.0">
  <defs>
    <clipPath id="a">
      <path d="M68 114h238v161H68Zm0 0"/>
    </clipPath>
  </defs>
  <path fill="#ffcc80" d="m98 208 87-83 114 115-79 79a40 40 0 0 1-56-1l-62-55c-16-16-16-41-4-55Zm0 0"/>
  <path fill="#ffcc80" d="M179 159c8 8 21 8 29 0l64-64a20 20 0 1 0-28-28l-65 64c-7 8-7 20 0 28Zm0 0"/>
  <path fill="#ffcc80" d="M198 198c8 8 20 8 28 0l29-28a20 20 0 1 0-29-29l-28 29c-8 7-8 20 0 28Zm0 0"/>
  <g clip-path="url(#a)">
    <path fill="#ffcc80" d="M221 232c8 8 21 8 29 0l29-29a20 20 0 1 0-29-29l-29 29c-7 8-7 21 0 29Zm21 37c8 8 21 8 28 0l29-29a20 20 0 1 0-29-28l-28 28c-8 8-8 21 0 29ZM89 178c0-10-3-19-8-27l-11-18c-2-3-2-8 1-10l3-4c9-8 24-4 30 2l7 7c14 13 25 29 30 47l13 34-65 25Zm0 0"/>
  </g>
  <path fill="#f2a25a" d="m227 140-19 19a7 7 0 1 0 10 10Zm24 34-19 19a7 7 0 1 0 10 9Zm19 38-19 19a7 7 0 1 0 10 9Zm0 0"/>
  <path fill="#0288d1" d="M150 94c-4 0-7-3-7-6V47a7 7 0 0 1 14 0v41c0 3-3 6-7 6Zm34 7a7 7 0 0 1-5-11l27-27a7 7 0 0 1 9 9l-27 27-4 2Zm-68 0-5-2-27-27a7 7 0 1 1 10-9l27 27a7 7 0 0 1-5 11Zm0 0"/>
</svg>
