<?xml version="1.0" encoding="UTF-8" standalone="no"?>
<!DOCTYPE svg PUBLIC "-//W3C//DTD SVG 1.1//EN" "http://www.w3.org/Graphics/SVG/1.1/DTD/svg11.dtd">
<svg width="100%" height="100%" viewBox="0 0 375 375" version="1.1" xmlns="http://www.w3.org/2000/svg" xmlns:xlink="http://www.w3.org/1999/xlink" xml:space="preserve" xmlns:serif="http://www.serif.com/" style="fill-rule:evenodd;clip-rule:evenodd;stroke-linejoin:round;stroke-miterlimit:2;">
    <path d="M91,314L90,314C82,314 73,313 66,303C60,294 59,285 58,277C57,266 58,254 59,243L60,217C59,211 59,205 56,201C54,197 51,195 48,195C45.499,195.236 42.999,194.522 41,193C39.051,191.117 37.948,188.519 37.948,185.808C37.948,181.055 41.338,176.926 46,176C52,176 56,171 58,166C60,160 61,152 61,145L63,94C63,89 63,81 67,75C71,67 81,61 91,64C93.655,64.666 95.866,66.509 97,69C97.508,69.933 97.846,70.949 98,72C98.156,73.728 97.808,75.465 97,77C95.866,79.491 93.655,81.334 91,82C89.36,82.423 87.64,82.423 86,82L83,84L82,95L80,146C80,154 79,164 75,174C74,178 71,182 68,185L73,191C78,200 78,208 79,216L78,244L77,276C78,281 78,287 82,291C84,294 85,295 91,295C96.103,295.513 100.026,299.872 100,305C99.545,309.75 95.75,313.545 91,314Z" style="fill:rgb(6,153,192);fill-rule:nonzero;"/>
    <path d="M282,314L281,314C276.907,312.655 274.122,308.808 274.122,304.5C274.122,300.192 276.907,296.345 281,295L282,295C287,295 288,294 290,291C294,287 295,281 295,276L296,244L295,216C296,208 297,199 302,191L307,185L300,174C296,164 296,154 296,145L296,94C296,90 296,86 294,84L292,82C289.623,82.53 287.133,82.174 285,81C282.89,79.646 281.439,77.469 281,75C279.77,71.377 280.979,67.348 284,65C284.871,64.157 285.887,63.479 287,63C298,61 307,67 311,75C315,81 315,89 315,94L315,145C315,153 315,160 318,167C320,171 324,176 329,177C331.285,177.279 333.405,178.339 335,180C336.383,181.761 337.135,183.936 337.135,186.176C337.135,190.96 333.701,195.108 329,196L327,196C324,195 320,198 318,201C316,206 315,212 315,217L315,243L314,277C313,285 312,295 306,303C298,312 290,314 282,314Z" style="fill:rgb(6,153,192);fill-rule:nonzero;"/>
    <path d="M100,100L171,100C171.748,100.136 172.442,100.483 173,101C174.104,101.625 174.848,102.74 175,104L175,117C174.848,118.26 174.104,119.375 173,120C172.442,120.517 171.748,120.864 171,121L100,121C97.806,121 96,119.194 96,117L96,104C95.907,102.906 96.269,101.82 97,101C97.82,100.269 98.906,99.907 100,100Z" style="fill:rgb(229,160,36);fill-rule:nonzero;"/>
    <path d="M163,139L273,139C273.748,139.136 274.442,139.483 275,140C275.731,140.82 276.093,141.906 276,143L276,156C276.059,157.864 274.806,159.535 273,160L163,160C161.906,160.093 160.82,159.731 160,159C159.269,158.18 158.907,157.094 159,156L159,143C159,140.806 160.806,139 163,139Z" style="fill:rgb(59,48,27);fill-rule:nonzero;"/>
    <path d="M100,139L137,139C138.094,138.907 139.18,139.269 140,140C140.731,140.82 141.093,141.906 141,143L141,156C141,158.194 139.194,160 137,160L100,160C98.906,160.093 97.82,159.731 97,159C96.269,158.18 95.907,157.094 96,156L96,143C95.907,141.906 96.269,140.82 97,140C97.82,139.269 98.906,138.907 100,139ZM196,100L229,100C230.094,99.907 231.18,100.269 232,101C232.731,101.82 233.093,102.906 233,104L233,117C233.093,118.094 232.731,119.18 232,120C231.18,120.731 230.094,121.093 229,121L196,121C194.387,121.21 192.8,120.416 192,119L192,104C191.907,102.906 192.269,101.82 193,101C193.82,100.269 194.906,99.907 196,100Z" style="fill:rgb(207,67,39);fill-rule:nonzero;"/>
    <path d="M254,100L273,100C273.748,100.136 274.442,100.483 275,101C275.731,101.82 276.093,102.906 276,104L276,117C276.059,118.864 274.806,120.535 273,121L254,121C252.74,120.848 251.625,120.104 251,119L250,117L250,104C250.343,102.511 251.511,101.343 253,101L254,100Z" style="fill:rgb(59,48,27);fill-rule:nonzero;"/>
    <path d="M100,215L171,215C173.194,215 175,216.806 175,219L175,232C174.848,233.26 174.104,234.375 173,235C172.442,235.517 171.748,235.864 171,236L100,236C97.806,236 96,234.194 96,232L96,219C96.136,218.252 96.483,217.558 97,217C97.625,215.896 98.74,215.152 100,215Z" style="fill:rgb(229,160,36);fill-rule:nonzero;"/>
    <path d="M163,254L273,254C273.748,254.136 274.442,254.483 275,255C275.731,255.82 276.093,256.906 276,258L276,271C276.059,272.864 274.806,274.535 273,275L163,275C161.906,275.093 160.82,274.731 160,274C159.269,273.18 158.907,272.094 159,271L159,258C159,255.806 160.806,254 163,254Z" style="fill:rgb(59,48,27);fill-rule:nonzero;"/>
    <path d="M100,254L137,254C138.094,253.907 139.18,254.269 140,255C140.731,255.82 141.093,256.906 141,258L141,271C141,273.194 139.194,275 137,275L100,275C98.906,275.093 97.82,274.731 97,274C96.269,273.18 95.907,272.094 96,271L96,258C95.907,256.906 96.269,255.82 97,255C97.82,254.269 98.906,253.907 100,254Z" style="fill:rgb(207,67,39);fill-rule:nonzero;"/>
    <path d="M196,215L229,215C231.194,215 233,216.806 233,219L233,232C233.093,233.094 232.731,234.18 232,235C231.18,235.731 230.094,236.093 229,236L196,236C194.387,236.21 192.8,235.416 192,234L192,219C192.136,218.252 192.483,217.558 193,217C193.625,215.896 194.74,215.152 196,215Z" style="fill:rgb(229,160,36);fill-rule:nonzero;"/>
    <path d="M254,215L273,215C274.806,215.465 276.059,217.136 276,219L276,232C276.21,233.613 275.416,235.2 274,236L254,236C252.74,235.848 251.625,235.104 251,234L250,232L250,219C250.343,217.511 251.511,216.343 253,216L254,215Z" style="fill:rgb(207,67,39);fill-rule:nonzero;"/>
    <path d="M100,178L146,178C147.094,177.907 148.18,178.269 149,179C149.731,179.82 150.093,180.906 150,182L150,195C150,197.194 148.194,199 146,199L100,199C97.806,199 96,197.194 96,195L96,182C95.907,180.906 96.269,179.82 97,179C97.82,178.269 98.906,177.907 100,178Z" style="fill:rgb(59,48,27);fill-rule:nonzero;"/>
    <path d="M223,178L271,178C272.094,177.907 273.18,178.269 274,179C274.731,179.82 275.093,180.906 275,182L275,195C274.864,195.748 274.517,196.442 274,197C273.375,198.104 272.26,198.848 271,199L224,199C222.511,198.657 221.343,197.489 221,196L220,195L220,182C219.941,180.136 221.194,178.465 223,178Z" style="fill:rgb(207,67,39);fill-rule:nonzero;"/>
    <path d="M170,178L199,178C200.094,177.907 201.18,178.269 202,179C202.731,179.82 203.093,180.906 203,182L203,195C202.864,195.748 202.517,196.442 202,197C201.375,198.104 200.26,198.848 199,199L171,199C168.806,199 167,197.194 167,195L167,182C166.941,180.136 168.194,178.465 170,178Z" style="fill:rgb(229,160,36);fill-rule:nonzero;"/>
</svg>
